<svg xmlns="http://www.w3.org/2000/svg" width="98.205" height="72" viewBox="0 0 98.205 72"><defs><style>.a{fill:#101920;}</style></defs><g transform="translate(0)"><path class="a" d="M91.23,104.292a2.95,2.95,0,0,1,2.95-2.95H98.2a36.123,36.123,0,0,0-33.05-33.05v4.025a2.95,2.95,0,0,1-5.9,0V68.292A35.815,35.815,0,0,0,37.7,77.754H2.95a2.95,2.95,0,0,0,0,5.9h29.6a35.786,35.786,0,0,0-3.34,5.9h-18.2a2.95,2.95,0,0,0,0,5.9H27.171a36.166,36.166,0,0,0-.966,5.886h4.025c.1,0,.194.005.289.015h4.034a2.95,2.95,0,1,1,0,5.9H26.206a36.122,36.122,0,0,0,33.048,33.035v-4.025a2.95,2.95,0,1,1,5.9,0v4.025a36.122,36.122,0,0,0,33.05-33.05H94.18A2.95,2.95,0,0,1,91.23,104.292ZM56.205,120.831c-3.85.048-6.649.069-8.693.069-5.138,0-5.522-.128-5.922-.262a3.075,3.075,0,0,1-2-2.025c-.5-1.641.252-2.632,1.912-4.8,1.36-1.781,3.892-5.1,8.135-11.158a14.911,14.911,0,0,0,2.358-4.656l.085-.663a3.9,3.9,0,0,0-7.727-.6,2.95,2.95,0,1,1-5.79-1.137,9.8,9.8,0,0,1,19.42,1.9,2.937,2.937,0,0,1-.024.374L57.827,98.9a2.9,2.9,0,0,1-.052.293,20.265,20.265,0,0,1-3.3,6.838c-2.868,4.1-4.969,6.964-6.463,8.958,2.408,0,5.351-.026,8.123-.061a2.95,2.95,0,0,1,.074,5.9Zm26.745-7.841h-.494c-.017,2.242-.032,4.051-.04,4.979a2.95,2.95,0,0,1-2.949,2.925h-.026a2.95,2.95,0,0,1-2.925-2.976c.013-1.509.026-3.183.039-4.928H66.135a2.95,2.95,0,0,1-2.583-4.375c2.119-3.84,9.149-16.516,10.668-18.379A4.678,4.678,0,0,1,79.252,88.4a4.855,4.855,0,0,1,3.222,4.378c.08.955.06,7.873.022,14.313h.455a2.95,2.95,0,1,1,0,5.9Z" transform="translate(0 -68.292)"/><path class="a" d="M93.431,246.516c-.079-.973-.121-1.957-.121-2.95s.041-1.967.12-2.936H85.987a2.95,2.95,0,1,0,0,5.9h7.324v-.015Z" transform="translate(-67.106 -207.566)"/><path class="a" d="M375.719,224.666c.02-3.5.034-6.88.034-9.39-1.421,2.423-3.36,5.835-5.347,9.39Z" transform="translate(-299.341 -187.076)"/></g></svg>