<svg xmlns="http://www.w3.org/2000/svg" width="82.464" height="82.464" viewBox="0 0 82.464 82.464"><defs><style>.a{fill:#101920;}</style></defs><path class="a" d="M192.106,108.924a23.2,23.2,0,1,0-23.2,23.2A23.226,23.226,0,0,0,192.106,108.924Zm-35.629,12.261,1.463-8.532-6.2-6.042,1.821-5.6,8.566-1.245L165.96,92h5.892l3.831,7.762,8.566,1.245,1.821,5.6-6.2,6.042,1.463,8.532-4.767,3.463-7.661-4.028-7.662,4.028Z" transform="translate(-127.674 -67.692)"/><path class="a" d="M224.578,168.171l5.173,2.719-.988-5.76,4.185-4.079-5.784-.841-2.586-5.241-2.586,5.241-5.784.841,4.185,4.079-.988,5.76Z" transform="translate(-183.346 -122.373)"/><path class="a" d="M91.388,77.895c3.269.874,6.281,4.569,9.825,4.569s6.556-3.7,9.825-4.569c3.452-.923,7.527.941,10.795-.949,3-1.738,3.774-6.443,6.212-8.881s7.143-3.208,8.881-6.212c1.713-2.961.045-7.412.949-10.795.874-3.269,4.569-6.281,4.569-9.825s-3.7-6.556-4.569-9.825c-.9-3.382.764-7.833-.949-10.795-1.738-3-6.443-3.774-8.881-6.212s-3.208-7.143-6.212-8.881c-2.841-1.644-7.675-.433-10.795-.95C107.769,3.7,104.757,0,101.213,0s-6.556,3.7-9.825,4.569c-3.119.516-7.954-.694-10.795.949-3,1.738-3.774,6.443-6.212,8.881s-7.143,3.208-8.881,6.212c-1.713,2.961-.045,7.412-.95,10.795-.874,3.269-4.569,6.281-4.569,9.825s3.7,6.556,4.569,9.825c.9,3.382-.764,7.833.95,10.795,1.738,3,6.443,3.774,8.881,6.212s3.208,7.143,6.212,8.881c3.268,1.891,7.343.027,10.795.95ZM71.7,41.232a29.51,29.51,0,1,1,29.51,29.51A29.544,29.544,0,0,1,71.7,41.232Z" transform="translate(-59.981)"/></svg>