<svg xmlns="http://www.w3.org/2000/svg" width="23.876" height="23.876" viewBox="0 0 23.876 23.876"><defs><style>.a{fill:#fefdf9;}</style></defs><g transform="translate(0)"><path class="a" d="M215.2,213.1a2.1,2.1,0,1,1-2.1-2.1A2.1,2.1,0,0,1,215.2,213.1Zm0,0" transform="translate(-201.161 -201.161)"/><path class="a" d="M129.886,120H122.8a2.8,2.8,0,0,0-2.8,2.8v7.088a2.8,2.8,0,0,0,2.8,2.8h7.088a2.8,2.8,0,0,0,2.8-2.8V122.8A2.8,2.8,0,0,0,129.886,120Zm-3.544,9.839a3.5,3.5,0,1,1,3.5-3.5A3.5,3.5,0,0,1,126.342,129.839Zm4.01-6.808a.7.7,0,1,1,.7-.7A.7.7,0,0,1,130.352,123.031Zm0,0" transform="translate(-114.404 -114.404)"/><path class="a" d="M17.58,0H6.3A6.3,6.3,0,0,0,0,6.3V17.58a6.3,6.3,0,0,0,6.3,6.3H17.58a6.3,6.3,0,0,0,6.3-6.3V6.3A6.3,6.3,0,0,0,17.58,0Zm2.1,15.482a4.2,4.2,0,0,1-4.2,4.2H8.394a4.2,4.2,0,0,1-4.2-4.2V8.394a4.2,4.2,0,0,1,4.2-4.2h7.088a4.2,4.2,0,0,1,4.2,4.2Zm0,0" transform="translate(0)"/></g></svg>