<svg xmlns="http://www.w3.org/2000/svg" width="23.876" height="23.876" viewBox="0 0 23.876 23.876"><defs><style>.a{fill:#fefdf9;}</style></defs><path class="a" d="M22.154,0H1.722A1.722,1.722,0,0,0,0,1.722V22.154a1.722,1.722,0,0,0,1.722,1.722H22.154a1.722,1.722,0,0,0,1.722-1.722V1.722A1.722,1.722,0,0,0,22.154,0ZM8.469,18.047H5.562V9.3H8.469ZM7.015,8.105H7a1.515,1.515,0,1,1,.038-3.022,1.516,1.516,0,1,1-.019,3.022Zm11.937,9.941H16.046V13.367c0-1.176-.421-1.978-1.473-1.978a1.592,1.592,0,0,0-1.492,1.063,1.991,1.991,0,0,0-.1.71v4.885H10.078s.038-7.926,0-8.747h2.907v1.238a2.886,2.886,0,0,1,2.62-1.444c1.913,0,3.347,1.25,3.347,3.937Zm0,0" transform="translate(0)"/></svg>