<svg xmlns="http://www.w3.org/2000/svg" width="225.008" height="160.419" viewBox="0 0 225.008 160.419"><defs><style>.a{fill:#ffe715;}</style></defs><g transform="translate(-570.021 -3393.673)"><g transform="translate(712.482 3404.058)"><path class="a" d="M8491.918,278.39c-.76-7.2-1.5-14.163-2.264-21.405h2.869q38.048,0,76.088.005c3.434,0,4.246,1.008,2.8,4.175a17.659,17.659,0,0,1-3.8,5.379,45.857,45.857,0,0,1-17.842,10.481,27.768,27.768,0,0,1-8.006,1.183c-16.164.194-32.33.238-48.494.325C8492.9,278.536,8492.52,278.457,8491.918,278.39Z" transform="translate(-8489.654 -256.985)"/></g><g transform="translate(570.41 3404.061)"><path class="a" d="M7877.656,257.093c-.775,7.206-1.525,14.188-2.289,21.3-.7.057-1.357.16-2.016.157-15.492-.074-30.988-.186-46.482-.235-10.934-.034-19.658-5.069-27.5-12.045a10.758,10.758,0,0,1-3.873-6.315c-.371-2.355.111-2.948,2.518-2.949q39.223-.016,78.445,0C7876.832,257,7877.211,257.058,7877.656,257.093Z" transform="translate(-7795.38 -256.999)"/></g><g transform="translate(598.483 3427.462)"><path class="a" d="M7984.535,371.511v19.148c-.861.071-1.691.2-2.518.2-6.967-.033-13.932-.065-20.9-.145-10.076-.116-18.166-4.749-25.221-11.44a13.974,13.974,0,0,1-3.033-5.148c-.744-1.949-.068-2.644,1.986-2.757.385-.021.775,0,1.162,0q22.925,0,45.855.006C7982.719,371.368,7983.564,371.457,7984.535,371.511Z" transform="translate(-7932.574 -371.355)"/></g><g transform="translate(714.773 3427.468)"><path class="a" d="M8500.848,390.662V371.6c.756-.074,1.5-.209,2.238-.209q23.338-.018,46.68,0c2.846,0,3.631.863,2.5,3.473a15.229,15.229,0,0,1-3.762,5.368c-6.424,5.621-13.576,10.069-22.4,10.372C8517.811,390.885,8509.494,390.662,8500.848,390.662Z" transform="translate(-8500.848 -371.382)"/></g><g transform="translate(653.498 3393.673)"><path class="a" d="M8260,250.545c-.25,9.389-.5,18.747-1.93,28.045-1.246,8.105-6.387,12.548-13.84,14.6a50.735,50.735,0,0,1-16.994,1.395,54.084,54.084,0,0,1-10.041-1.333c-7.713-2.034-12.945-6.638-14.172-14.97a174.059,174.059,0,0,1-1.609-24.275c-.064-9.376.447-18.719,1.09-28.081.887-12.788,9.465-17.984,18.842-19.1a69.345,69.345,0,0,1,21.377.5,19.849,19.849,0,0,1,12.377,7.452,13.651,13.651,0,0,1,2.787,6.6c.344,2.487.852,4.963,1.006,7.461C8259.342,236.07,8259.643,243.309,8260,250.545Zm-2.021-.058c-.5-9.693-.65-19.352-2.268-28.923a12.606,12.606,0,0,0-4.1-7.464,18.026,18.026,0,0,0-8.918-4.546,63.131,63.131,0,0,0-23.08-.152c-9.184,1.672-13.625,6.485-14.725,15.623-1.5,12.52-1.488,25.078-1,37.635.215,5.679,1.012,11.341,1.65,17a11.036,11.036,0,0,0,3.416,6.571,18.068,18.068,0,0,0,9.824,5.233,65.689,65.689,0,0,0,22.8.1c8.963-1.549,13.785-6.451,14.584-15.36C8256.928,267.644,8257.389,259.059,8257.982,250.487Z" transform="translate(-8201.412 -206.235)"/></g><g transform="translate(624.822 3449.263)"><path class="a" d="M8086.96,477.9c.41,5.245.82,10.506,1.266,16.185-2.607-.615-5.035-1.037-7.365-1.767a61.7,61.7,0,0,1-15.83-7.678,7.877,7.877,0,0,1-3.635-4.7c-.342-1.443.008-2.008,1.529-2.016C8070.839,477.878,8078.757,477.9,8086.96,477.9Z" transform="translate(-8061.275 -477.895)"/></g><g transform="translate(713.454 3449.231)"><path class="a" d="M8495.577,477.739h25.283a4.179,4.179,0,0,1-1.07,4.72,18.478,18.478,0,0,1-3.809,3.081c-6.59,3.929-13.459,7.192-21.574,8.281C8494.8,488.438,8495.19,483.111,8495.577,477.739Z" transform="translate(-8494.407 -477.739)"/></g><g transform="translate(658.594 3399.196)"><path class="a" d="M8274.938,272.125c-.633,8.279-1.154,16.664-1.955,25.021-.629,6.581-4.877,10.5-10.861,12.159a46.016,46.016,0,0,1-22.707.235c-6.809-1.552-10.812-6.214-11.684-13.093a214.552,214.552,0,0,1-.715-42.241c.16-2.31.43-4.615.725-6.914a14.744,14.744,0,0,1,12.355-13.148,57.76,57.76,0,0,1,19.9-.114c7.441,1.168,12.244,5.951,13.033,13.4C8273.9,255.588,8274.313,263.791,8274.938,272.125Zm-41.729-28.849c-.068,1.01-.17,1.857-.17,2.7q-.018,23.782,0,47.565a19.572,19.572,0,0,0,.3,3.163,6.9,6.9,0,0,0,5,5.837,16.341,16.341,0,0,0,5.676.85c7.129-.476,9.744-4.141,9.389-9.94-.072-1.155.006-2.319.006-3.479q0-18.707.016-37.414a19.229,19.229,0,0,1,.365-4.022,3.514,3.514,0,0,1,4.037-2.906,3.42,3.42,0,0,1,3.533,3.185,26.363,26.363,0,0,1,.223,4.046q.018,22.187.012,44.374c0,1.126.07,2.252.109,3.407h5.918c.057-1.1.143-2.038.143-2.979q.012-23.492-.014-46.985a11.79,11.79,0,0,0-.543-4.275,8.868,8.868,0,0,0-2.7-3.95c-3.98-2.775-8.41-2.73-12.7-.8-3.811,1.716-4.58,5.2-4.432,9.006.037.965.006,1.933.006,2.9q0,19.142-.016,38.284a14.675,14.675,0,0,1-.322,3.44,3.471,3.471,0,0,1-3.98,2.987,3.55,3.55,0,0,1-3.674-3.393,30.9,30.9,0,0,1-.215-4.339q-.021-21.9-.01-43.794v-3.477Z" transform="translate(-8226.318 -233.223)"/></g><g transform="translate(570.021 3486.934)"><g transform="translate(0 0)"><path class="a" d="M7810.213,662.264v33.29a6.89,6.89,0,0,1-.461,2.464,7.017,7.017,0,0,1-1.293,2.149,6.71,6.71,0,0,1-1.928,1.518,5,5,0,0,1-2.355.573h-4.717a4.892,4.892,0,0,1-2.3-.573,6.33,6.33,0,0,1-1.9-1.518,7.784,7.784,0,0,1-1.293-2.149,6.522,6.522,0,0,1-.488-2.464v-33.29l4.7,4.641v28.648a1.327,1.327,0,0,0,.4.974,1.213,1.213,0,0,0,.861.4h4.7a1.362,1.362,0,0,0,.945-.4,1.279,1.279,0,0,0,.43-.974V666.905Z" transform="translate(-7793.482 -662.207)"/><path class="a" d="M7913.884,661.984v45.093l-4.586-4.526-7.506-24.065v20.34l-5.268,3.724V661.984h5.268l7.506,24.007V661.984Z" transform="translate(-7875.438 -661.984)"/><path class="a" d="M8005.162,702.817V662.824h4.7v39.993Z" transform="translate(-7961.846 -662.652)"/><path class="a" d="M8063.233,666.74h-4.7v35.41h-4.814V666.74h-5.443v-4.756h18.336Z" transform="translate(-7996.139 -661.984)"/><path class="a" d="M8190.956,702.315h-21.717V662.264h19.023l-4.125,4.756h-10.2V680.6h6.82l6.131,4.756h-12.951v12.2h17.018Z" transform="translate(-8092.348 -662.207)"/><path class="a" d="M8317.263,663.384a6.041,6.041,0,0,1,2.633.573,6.782,6.782,0,0,1,2.064,1.49,6.873,6.873,0,0,1,1.346,2.091,6.169,6.169,0,0,1,.486,2.378v26.93a5.557,5.557,0,0,1-1.8,4.183,6.568,6.568,0,0,1-4.727,1.719h-10.545V663.384h10.545Zm1.947,7.162a1.627,1.627,0,0,0-.746-1.461,2.417,2.417,0,0,0-1.2-.487h-5.33v29.565h5.961a1.375,1.375,0,0,0,1.316-1.318v-26.3Z" transform="translate(-8201.692 -663.097)"/></g><g transform="translate(139.619 0)"><path class="a" d="M8486.464,662.544a6.43,6.43,0,0,1,2.732.573,6.847,6.847,0,0,1,3.508,3.667,6.559,6.559,0,0,1,.484,2.464v33.347h-4.7v-8.021h-8.023v8.021h-4.7V669.248a6.561,6.561,0,0,1,.486-2.464,7.22,7.22,0,0,1,1.352-2.148,6.48,6.48,0,0,1,4.889-2.092Zm2.029,6.7a1.16,1.16,0,0,0-.518-.917,2.49,2.49,0,0,0-1.547-.4h-3.951a2.358,2.358,0,0,0-1.518.4,1.17,1.17,0,0,0-.49.917v20h8.023Z" transform="translate(-8475.772 -662.429)"/><path class="a" d="M8610.934,662.264v33.29a6.925,6.925,0,0,1-.455,2.464,7.061,7.061,0,0,1-1.295,2.149,6.728,6.728,0,0,1-1.926,1.518,5,5,0,0,1-2.357.573h-4.717a4.865,4.865,0,0,1-2.295-.573,6.353,6.353,0,0,1-1.9-1.518,7.875,7.875,0,0,1-1.291-2.149,6.45,6.45,0,0,1-.49-2.464v-33.29l4.7,4.641v28.648a1.326,1.326,0,0,0,.395.974,1.211,1.211,0,0,0,.863.4h4.7a1.365,1.365,0,0,0,.945-.4,1.284,1.284,0,0,0,.428-.974V666.905Z" transform="translate(-8569.968 -662.207)"/><path class="a" d="M8709.962,666.74h-4.7v35.41h-4.816V666.74h-5.441v-4.756h18.334Z" transform="translate(-8650.144 -661.984)"/><path class="a" d="M8817.521,663.384a6.767,6.767,0,0,1,4.883,1.776,5.785,5.785,0,0,1,1.857,4.355v27.732a5.719,5.719,0,0,1-1.857,4.3,6.762,6.762,0,0,1-4.883,1.776h-4.057a6.78,6.78,0,0,1-4.885-1.776,5.729,5.729,0,0,1-1.854-4.3V669.515a5.8,5.8,0,0,1,1.854-4.355,6.785,6.785,0,0,1,4.885-1.776Zm2.043,11.517v-5.386a1.225,1.225,0,0,0-.494-.974,2.4,2.4,0,0,0-1.529-.4h-4.1a2.386,2.386,0,0,0-1.525.4,1.22,1.22,0,0,0-.494.974v27.732a1.168,1.168,0,0,0,.494.917,2.379,2.379,0,0,0,1.525.4h4.1a2.387,2.387,0,0,0,1.529-.4,1.174,1.174,0,0,0,.494-.917V674.9Z" transform="translate(-8739.005 -663.097)"/></g></g><g transform="translate(570.021 3534.233)"><path class="a" d="M7801.126,906.081a1.43,1.43,0,0,1-.176.592,1.843,1.843,0,0,1-.428.593l-.578.555.578.6a1.859,1.859,0,0,1,.428.593,1.415,1.415,0,0,1,.176.567v7.687l-2.365,1.487V910.8a1.586,1.586,0,0,0-.553-1.334,1.935,1.935,0,0,0-1.209-.428h-1.182v8.507h-2.34V899.881h4.705a2.86,2.86,0,0,1,1.082.214,3.032,3.032,0,0,1,.943.605,2.992,2.992,0,0,1,.668.932,2.808,2.808,0,0,1,.25,1.2Zm-2.365-3.23a1,1,0,0,0-.189-.654.521.521,0,0,0-.389-.227h-2.365v4.707H7797a1.9,1.9,0,0,0,1.209-.44,1.622,1.622,0,0,0,.553-1.347Z" transform="translate(-7793.478 -899.856)"/><path class="a" d="M7851.229,917.721h-9.539V900.127h8.355l-1.812,2.089h-4.48v5.965h3l2.693,2.089h-5.689v5.362h7.477Z" transform="translate(-7831.824 -900.052)"/><path class="a" d="M7900.676,916.876a2.524,2.524,0,0,1-.8-1.9V902.8a2.525,2.525,0,0,1,.8-1.9,3.009,3.009,0,0,1,2.166-.769h1.785a2.941,2.941,0,0,1,2.152.777,2.577,2.577,0,0,1,.795,1.916v2.693l-2.066,1.762V902.82a.561.561,0,0,0-.227-.4.971.971,0,0,0-.658-.2h-1.8a.955.955,0,0,0-.672.2.562.562,0,0,0-.215.4v12.157a.509.509,0,0,0,.215.4,1.049,1.049,0,0,0,.672.176h1.8a1.066,1.066,0,0,0,.658-.176.507.507,0,0,0,.227-.4V911.73l2.066-1.787v5.034a2.538,2.538,0,0,1-.795,1.9,2.959,2.959,0,0,1-2.152.768h-1.785A3.007,3.007,0,0,1,7900.676,916.876Z" transform="translate(-7878.099 -900.052)"/><path class="a" d="M7943.289,900.06h2.945l4.68,3.775v-4.077h2.344v8.18Zm7.625,17.291v-9.69l2.344,1.762v7.928Z" transform="translate(-7912.632 -899.758)"/><path class="a" d="M8004.239,916.876a2.529,2.529,0,0,1-.8-1.9V902.8a2.531,2.531,0,0,1,.8-1.9,3.015,3.015,0,0,1,2.166-.769h1.787a2.944,2.944,0,0,1,2.152.777,2.575,2.575,0,0,1,.793,1.916v2.693l-2.064,1.762V902.82a.551.551,0,0,0-.229-.4.961.961,0,0,0-.658-.2h-1.8a.952.952,0,0,0-.672.2.562.562,0,0,0-.215.4v12.157a.509.509,0,0,0,.215.4,1.045,1.045,0,0,0,.672.176h1.8a1.054,1.054,0,0,0,.658-.176.5.5,0,0,0,.229-.4V911.73l2.064-1.787v5.034a2.537,2.537,0,0,1-.793,1.9,2.963,2.963,0,0,1-2.152.768h-1.787A3.013,3.013,0,0,1,8004.239,916.876Z" transform="translate(-7960.472 -900.052)"/><path class="a" d="M8057.915,915.78l-1.812,2.089h-6.543V900.25h2.367v15.53Z" transform="translate(-7997.157 -900.149)"/><path class="a" d="M8111,917.721h-9.537V900.127h8.355l-1.814,2.089h-4.48v5.965h3l2.693,2.089h-5.689v5.362H8111Z" transform="translate(-8038.44 -900.052)"/><path class="a" d="M8160.408,906.081a1.469,1.469,0,0,1-.178.592,1.9,1.9,0,0,1-.428.593l-.578.555.578.6a1.921,1.921,0,0,1,.428.593,1.458,1.458,0,0,1,.178.567v7.687l-2.367,1.487V910.8a1.586,1.586,0,0,0-.553-1.334,1.947,1.947,0,0,0-1.209-.428H8155.1v8.507h-2.342V899.881h4.709a2.868,2.868,0,0,1,1.082.214,2.987,2.987,0,0,1,.943.605,3.062,3.062,0,0,1,.67.932,2.868,2.868,0,0,1,.25,1.2Zm-2.367-3.23a1,1,0,0,0-.187-.654.528.528,0,0,0-.391-.227H8155.1v4.707h1.184a1.912,1.912,0,0,0,1.209-.44,1.622,1.622,0,0,0,.553-1.347Z" transform="translate(-8079.234 -899.856)"/><path class="a" d="M8196.419,900.127h8.23v2.039h-4.125l3.824,4.707v2.92Zm0,5.563,7.93,9.992v-3.247l-7.93-9.967Zm0,9.992h3.824l-3.824-4.707v-3.222l7.629,9.968h-7.629Z" transform="translate(-8113.964 -900.052)"/></g><g transform="translate(714.716 3534.258)"><path class="a" d="M8507.145,902.093h-2.064v15.555h-2.113V902.093h-2.391V900h8.053Z" transform="translate(-8500.576 -899.979)"/><path class="a" d="M8552.387,906.081a1.469,1.469,0,0,1-.178.592,1.839,1.839,0,0,1-.426.593l-.582.555.582.6a1.855,1.855,0,0,1,.426.593,1.458,1.458,0,0,1,.178.567v7.687l-2.367,1.487V910.8a1.58,1.58,0,0,0-.553-1.334,1.931,1.931,0,0,0-1.209-.428h-1.184v8.507h-2.34V899.881h4.709a2.865,2.865,0,0,1,1.08.214,3,3,0,0,1,1.611,1.537,2.809,2.809,0,0,1,.252,1.2Zm-2.367-3.23a1,1,0,0,0-.187-.654.524.524,0,0,0-.389-.227h-2.369v4.707h1.184a1.9,1.9,0,0,0,1.209-.44,1.616,1.616,0,0,0,.553-1.347Z" transform="translate(-8535.7 -899.881)"/><path class="a" d="M8592.236,900.25a2.836,2.836,0,0,1,1.2.251,3.011,3.011,0,0,1,1.543,1.611,2.937,2.937,0,0,1,.211,1.082v14.649h-2.062V914.32H8589.6v3.523h-2.062V903.195a2.76,2.76,0,0,1,.219-1.082,3.052,3.052,0,0,1,.588-.944,2.9,2.9,0,0,1,.926-.667,2.864,2.864,0,0,1,1.223-.251Zm.889,2.945a.507.507,0,0,0-.227-.4,1.1,1.1,0,0,0-.68-.176h-1.736a1.023,1.023,0,0,0-.666.176.517.517,0,0,0-.217.4v8.784h3.525Z" transform="translate(-8569.743 -900.175)"/><path class="a" d="M8639.443,900v19.809l-2.012-1.989-3.3-10.571v8.935l-2.318,1.636V900h2.318l3.3,10.546V900Z" transform="translate(-8604.96 -899.979)"/><path class="a" d="M8675.481,900.127h8.23v2.039h-4.129l3.826,4.707v2.92Zm0,5.563,7.928,9.992v-3.247l-7.928-9.967Zm0,9.992h3.826l-3.826-4.707v-3.222l7.627,9.968h-7.627Z" transform="translate(-8639.69 -900.077)"/><path class="a" d="M8727.85,900a3.021,3.021,0,0,1,1.1.214,3.171,3.171,0,0,1,.971.6,2.824,2.824,0,0,1,.682.957,3.035,3.035,0,0,1,.254,1.246v8.331a2.545,2.545,0,0,1-.254,1.107,3.479,3.479,0,0,1-1.652,1.636,2.625,2.625,0,0,1-1.1.251h-2.707v3.3h-2.062V900h4.77Zm.617,3.02a1.116,1.116,0,0,0-.229-.592.767.767,0,0,0-.684-.34h-2.412v9.866h2.715a.568.568,0,0,0,.416-.189.578.578,0,0,0,.193-.415v-8.331Z" transform="translate(-8677.549 -899.979)"/><path class="a" d="M8772.593,900.619a2.966,2.966,0,0,1,2.143.78,2.529,2.529,0,0,1,.818,1.913v12.182a2.5,2.5,0,0,1-.818,1.888,2.965,2.965,0,0,1-2.143.781h-1.781a2.98,2.98,0,0,1-2.146-.781,2.517,2.517,0,0,1-.814-1.888V903.312a2.546,2.546,0,0,1,.814-1.913,2.982,2.982,0,0,1,2.146-.78Zm.895,5.059v-2.366a.529.529,0,0,0-.213-.428,1.061,1.061,0,0,0-.674-.176h-1.8a1.071,1.071,0,0,0-.676.176.543.543,0,0,0-.215.428v12.182a.521.521,0,0,0,.215.4,1.07,1.07,0,0,0,.676.176h1.8a1.06,1.06,0,0,0,.674-.176.507.507,0,0,0,.213-.4v-9.816Z" transform="translate(-8713.158 -900.468)"/><path class="a" d="M8818.181,906.081a1.461,1.461,0,0,1-.176.592,1.847,1.847,0,0,1-.43.593l-.578.555.578.6a1.863,1.863,0,0,1,.43.593,1.448,1.448,0,0,1,.176.567v7.687l-2.365,1.487V910.8a1.587,1.587,0,0,0-.555-1.334,1.926,1.926,0,0,0-1.207-.428h-1.184v8.507h-2.34V899.881h4.707a2.868,2.868,0,0,1,1.082.214,3.04,3.04,0,0,1,.945.605,2.982,2.982,0,0,1,.664.932,2.809,2.809,0,0,1,.252,1.2Zm-2.365-3.23a.98.98,0,0,0-.189-.654.524.524,0,0,0-.389-.227h-2.367v4.707h1.184a1.891,1.891,0,0,0,1.207-.44,1.623,1.623,0,0,0,.555-1.347Z" transform="translate(-8747.104 -899.881)"/><path class="a" d="M8860.273,902.093h-2.062v15.555H8856.1V902.093h-2.391V900h8.053Z" transform="translate(-8781.445 -899.979)"/></g><g transform="translate(674.534 3534.283)"><path class="a" d="M8308.91,900.251a2.82,2.82,0,0,1,1.2.252,3,3,0,0,1,1.541,1.611,2.864,2.864,0,0,1,.215,1.083v14.649H8309.8v-3.524h-3.523v3.524h-2.064V903.2a2.829,2.829,0,0,1,.217-1.083,3.135,3.135,0,0,1,.59-.944,2.959,2.959,0,0,1,.92-.667,2.911,2.911,0,0,1,1.229-.252Zm.891,2.945a.506.506,0,0,0-.225-.4,1.109,1.109,0,0,0-.68-.176h-1.736a1.047,1.047,0,0,0-.67.176.508.508,0,0,0-.213.4v8.784h3.523Z" transform="translate(-8304.213 -900.201)"/><path class="a" d="M8356.119,900v19.809l-2.01-1.988-3.3-10.571v8.935l-2.32,1.636V900h2.32l3.3,10.546V900Z" transform="translate(-8339.431 -900.005)"/><path class="a" d="M8401.462,900.62a2.676,2.676,0,0,1,1.158.252,2.951,2.951,0,0,1,1.494,1.573,2.675,2.675,0,0,1,.219,1.044v11.83a2.433,2.433,0,0,1-.795,1.837,2.891,2.891,0,0,1-2.076.755h-4.631V900.62h4.631Zm.855,3.146a.715.715,0,0,0-.328-.642,1.064,1.064,0,0,0-.527-.214h-2.34V915.9h2.617a.6.6,0,0,0,.578-.579V903.766Z" transform="translate(-8377.877 -900.494)"/></g></g></svg>