<svg xmlns="http://www.w3.org/2000/svg" width="82.518" height="82.519" viewBox="0 0 82.518 82.519"><defs><style>.a{fill:#101920;}</style></defs><path class="a" d="M82.26,36.678a2.687,2.687,0,0,0-2.653-2.032,9.11,9.11,0,0,1-6.236-15.855,2.293,2.293,0,0,0,.252-3.112,40.846,40.846,0,0,0-6.536-6.6,2.3,2.3,0,0,0-3.136.254A9.51,9.51,0,0,1,53.66,11.642a9.164,9.164,0,0,1-5.572-8.958A2.289,2.289,0,0,0,46.062.274,41.175,41.175,0,0,0,36.78.25a2.3,2.3,0,0,0-2.042,2.361,9.181,9.181,0,0,1-5.65,8.8A9.535,9.535,0,0,1,18.873,9.087a2.3,2.3,0,0,0-3.114-.261,41.016,41.016,0,0,0-6.674,6.6,2.3,2.3,0,0,0,.246,3.135,9.143,9.143,0,0,1,2.307,10.3,9.537,9.537,0,0,1-8.977,5.577A2.245,2.245,0,0,0,.277,36.459,41.36,41.36,0,0,0,.26,45.841a2.731,2.731,0,0,0,2.706,2.03,9.05,9.05,0,0,1,8.49,5.653,9.18,9.18,0,0,1-2.308,10.2,2.291,2.291,0,0,0-.25,3.108,40.991,40.991,0,0,0,6.526,6.6,2.3,2.3,0,0,0,3.141-.249A9.5,9.5,0,0,1,28.85,70.877a9.152,9.152,0,0,1,5.583,8.954,2.29,2.29,0,0,0,2.024,2.411,41.081,41.081,0,0,0,9.283.025A2.3,2.3,0,0,0,47.782,79.9a9.171,9.171,0,0,1,5.646-8.8A9.523,9.523,0,0,1,63.646,73.43a2.3,2.3,0,0,0,3.114.261,41.07,41.07,0,0,0,6.674-6.6,2.292,2.292,0,0,0-.246-3.136,9.141,9.141,0,0,1-2.311-10.292,9.235,9.235,0,0,1,8.44-5.593l.51.014a2.3,2.3,0,0,0,2.415-2.024A41.179,41.179,0,0,0,82.26,36.678Zm-41,28.367a23.786,23.786,0,1,1,20.422-11.59L51.267,43.04A14.591,14.591,0,0,0,33.992,23.277a1.652,1.652,0,0,0-1.142,1.151A1.612,1.612,0,0,0,33.308,26s5.142,5.182,6.863,6.9a1.067,1.067,0,0,1,.155.765l-.016.113a32.885,32.885,0,0,1-.784,5.034c-.037.037-.072.068-.11.106l-.114.117a32.414,32.414,0,0,1-5.111.794v-.01l-.086.022a.747.747,0,0,1-.082,0,1.1,1.1,0,0,1-.791-.335c-1.791-1.791-6.731-6.7-6.731-6.7a1.679,1.679,0,0,0-1.2-.535,1.633,1.633,0,0,0-1.538,1.242,14.592,14.592,0,0,0,19.77,17.248L54.06,61.3A23.666,23.666,0,0,1,41.26,65.045Z" transform="translate(-0.002 0.001)"/></svg>