<svg xmlns="http://www.w3.org/2000/svg" width="23.876" height="23.876" viewBox="0 0 23.876 23.876"><defs><style>.a{fill:#fefdf9;}</style></defs><path class="a" d="M22.154,0H1.722A1.722,1.722,0,0,0,0,1.722V22.154a1.722,1.722,0,0,0,1.722,1.722H22.154a1.722,1.722,0,0,0,1.722-1.722V1.722A1.722,1.722,0,0,0,22.154,0ZM17.389,9.308q.008.176.008.354a7.743,7.743,0,0,1-7.8,7.8h0a7.756,7.756,0,0,1-4.2-1.231,5.573,5.573,0,0,0,.654.038,5.5,5.5,0,0,0,3.4-1.173,2.743,2.743,0,0,1-2.56-1.9,2.731,2.731,0,0,0,1.238-.047,2.741,2.741,0,0,1-2.2-2.686c0-.012,0-.023,0-.035a2.721,2.721,0,0,0,1.241.343A2.742,2.742,0,0,1,6.33,7.106a7.779,7.779,0,0,0,5.648,2.863,2.742,2.742,0,0,1,4.669-2.5,5.5,5.5,0,0,0,1.74-.665,2.751,2.751,0,0,1-1.2,1.516,5.465,5.465,0,0,0,1.573-.432,5.568,5.568,0,0,1-1.367,1.419Zm0,0" transform="translate(0)"/></svg>